# xmcd CD database file
#
# Track frame offsets:
#	150
#	20182
#	40282
#	52189
#	67422
#	90000
#	107835
#	127950
#
# Disc length: 1931 seconds
#
# Revision: 5
# Processed by: cddbd v1.5.1PL2 Copyright (c) Steve Scherf et al.
# Submitted via: CDex 1.51
#
DISCID=6f078908
DTITLE=Various Artist - Blues Festival
DYEAR=2000
DGENRE=Blues
TTITLE0=Cousin Joe - Chicken and the Hawk
TTITLE1=Cousin Joe - Sleepwalkin' Blues
TTITLE2=Lonnie Johnson - Slow and Easy
TTITLE3=Lonnie Johnson - Another Night to Cry
TTITLE4=Victoria Spivey - T.B. Blues
TTITLE5=Victoria Spivey - Grand Spivey
TTITLE6=Otis Spann with the Muddy Waters Band - Good Looking Woman
TTITLE7=Otis Spann with the Muddy Waters Band - Baby Please Don't Go
EXTD=YEAR: 2000
EXTT0=
EXTT1=
EXTT2=
EXTT3=
EXTT4=
EXTT5=
EXTT6=
EXTT7=
PLAYORDER=
